<?xml version="1.0" encoding="UTF-8"?>
<svg version="1.1" xmlns="http://www.w3.org/2000/svg" width="812" height="490">
<path d="M0 0 C1.40297642 3.38493768 2.7672616 6.78419202 4.125 10.1875 C4.52332031 11.14720703 4.92164063 12.10691406 5.33203125 13.09570312 C5.69941406 14.02705078 6.06679688 14.95839844 6.4453125 15.91796875 C6.79094238 16.77156982 7.13657227 17.6251709 7.49267578 18.50463867 C8.13594287 21.66865836 7.45477528 23.16438065 6 26 C5.0081701 27.4723278 3.96653373 28.91248935 2.875 30.3125 C2.06675781 31.35857422 2.06675781 31.35857422 1.2421875 32.42578125 C0.62730469 33.20501953 0.62730469 33.20501953 0 34 C-2.55455922 32.86464035 -4.18539712 31.82103802 -6.22265625 29.85449219 C-8.88421189 27.67922325 -8.88421189 27.67922325 -12.171875 28.15332031 C-13.94304687 28.61109863 -13.94304687 28.61109863 -15.75 29.078125 C-16.39664108 29.23961533 -17.04328217 29.40110565 -17.70951843 29.56748962 C-19.81410725 30.10227752 -21.90628643 30.67422207 -24 31.25 C-25.45009854 31.63129341 -26.90037661 32.01190466 -28.35083008 32.3918457 C-39.1574944 35.27463571 -49.59315484 38.84218605 -59.91796875 43.15087891 C-62.80504568 44.32832421 -65.74754361 45.33801043 -68.6875 46.375 C-83.31594773 52.07537576 -95.88412551 60.70514298 -108.06738281 70.45996094 C-110.38620909 72.30775732 -112.73628879 74.11136617 -115.09375 75.90942383 C-125.30935092 83.70101037 -135.39181538 91.66325845 -145.375 99.75 C-146.01671143 100.26860596 -146.65842285 100.78721191 -147.31958008 101.3215332 C-156.80210022 109.03166543 -165.42162558 117.34065779 -173.95898438 126.0859375 C-179.23598159 131.42894572 -184.67326307 136.3273214 -190.53833008 141.01708984 C-193.54612988 143.43991539 -196.3648174 145.98943458 -199.1875 148.625 C-202.34735985 151.56831002 -205.52425266 154.46002869 -208.796875 157.27734375 C-213.41589327 161.30330964 -217.74231859 165.59533293 -222.0625 169.9375 C-222.82626953 170.69740234 -223.59003906 171.45730469 -224.37695312 172.24023438 C-228.57799097 176.44845962 -232.57949566 180.75688095 -236.46069336 185.26049805 C-238.42591323 187.48130559 -240.52957354 189.47357108 -242.75 191.4375 C-243.60980469 192.19804687 -244.46960938 192.95859375 -245.35546875 193.7421875 C-247.88590941 195.90259327 -250.46222856 197.98701779 -253.0625 200.0625 C-263.64055869 208.66086614 -273.34490331 218.27610872 -282.90765381 227.97462463 C-291.61784064 236.80842847 -300.25387615 245.28490707 -310.24560547 252.66894531 C-313.70865788 255.29635441 -317.03111094 258.09870696 -320.375 260.875 C-321.81613882 262.06672972 -323.25754492 263.2581363 -324.69921875 264.44921875 C-325.41255371 265.03880371 -326.12588867 265.62838867 -326.86083984 266.23583984 C-335.72193861 273.54356635 -344.65111453 280.7599673 -353.70288086 287.83007812 C-358.9596425 291.945299 -364.14030564 296.15133143 -369.3137207 300.37060547 C-372.92040782 303.3120582 -376.53996742 306.23416786 -380.1875 309.125 C-387.71062017 315.12573497 -395.04912182 321.36675141 -402.25 327.75 C-409.38282676 334.00241509 -416.75430874 339.30047242 -425 344 C-428.75599879 341.8682169 -432.00433548 339.45946419 -435.3125 336.6875 C-439.78000235 332.98274195 -444.32419521 329.43583727 -449 326 C-445.33333333 318.66666667 -441.66666667 311.33333333 -438 304 C-438.62342285 304.40726318 -439.2468457 304.81452637 -439.88916016 305.23413086 C-442.8007696 307.13577075 -445.71285558 309.03667947 -448.625 310.9375 C-449.67719727 311.62465088 -450.72939453 312.31180176 -451.81347656 313.01977539 C-460.84026808 318.90937554 -460.84026808 318.90937554 -465.2578125 321.71875 C-466.1537915 322.28855591 -466.1537915 322.28855591 -467.06787109 322.86987305 C-468.70639851 323.90982666 -470.3453806 324.94906378 -471.984375 325.98828125 C-475.994955 328.66373293 -479.76501329 331.61771397 -483.5 334.6640625 C-487.44381084 336.77153642 -490.09791478 335.56027181 -494.22460938 334.34472656 C-496.75511201 333.55609027 -499.25019663 332.69332874 -501.75 331.8125 C-502.61238281 331.53341797 -503.47476563 331.25433594 -504.36328125 330.96679688 C-510.56898137 328.76712383 -510.56898137 328.76712383 -512.5078125 325.31640625 C-512.67023438 324.22199219 -512.83265625 323.12757813 -513 322 C-513.10441406 321.31558838 -513.20882812 320.63117676 -513.31640625 319.92602539 C-513.63752906 317.66206004 -513.8898495 315.39940648 -514.125 313.125 C-514.21136719 312.34125 -514.29773438 311.5575 -514.38671875 310.75 C-514.5970149 308.83396841 -514.79932744 306.9170634 -515 305 C-515.27972656 305.47493896 -515.55945313 305.94987793 -515.84765625 306.43920898 C-521.96886382 316.80319085 -528.26464601 327.02478187 -534.8125 337.125 C-540.42434781 345.79095577 -545.71714158 354.58359572 -550.8125 363.5625 C-557.63001481 375.56331554 -565.01219668 386.86645218 -573.41015625 397.8203125 C-577.06396243 402.8297077 -580.41651064 408.05643024 -583.83105469 413.23046875 C-585.42140395 415.63791476 -587.022769 418.03795025 -588.625 420.4375 C-589.09164062 421.13746094 -589.55828125 421.83742188 -590.0390625 422.55859375 C-590.35617187 423.03425781 -590.67328125 423.50992187 -591 424 C-599.49034505 419.22805424 -607.84120345 414.32819366 -616 409 C-615.34997147 405.48984592 -613.90673141 402.99760178 -612 400 C-611.525625 399.21882813 -611.05125 398.43765625 -610.5625 397.6328125 C-607.19309997 392.22492545 -603.6132397 387.0453332 -599.8125 381.9375 C-589.7424375 368.32907362 -580.87813072 354.24961913 -572.50146484 339.53710938 C-568.15591279 331.92709927 -563.58614837 324.53864477 -558.76171875 317.2265625 C-555.47286827 312.23251585 -552.3300897 307.14941611 -549.1875 302.0625 C-548.39641846 300.78379028 -548.39641846 300.78379028 -547.58935547 299.47924805 C-544.98588171 295.25918724 -542.41652256 291.02246441 -539.88671875 286.7578125 C-532.95210048 275.18276091 -524.67410795 262.81603013 -511 259 C-504.47955374 258.09495383 -497.80392238 258.75410267 -492 262 C-487.21696933 266.21709956 -483.36799695 270.95559481 -482.77294922 277.49536133 C-482.78865967 278.77576294 -482.78865967 278.77576294 -482.8046875 280.08203125 C-482.81435547 281.47905273 -482.81435547 281.47905273 -482.82421875 282.90429688 C-482.84935547 284.34385742 -482.84935547 284.34385742 -482.875 285.8125 C-482.88402344 286.79154297 -482.89304687 287.77058594 -482.90234375 288.77929688 C-482.92582818 291.18645061 -482.9586716 293.59309743 -483 296 C-475.45720446 291.61087329 -468.03017188 287.1260299 -460.875 282.125 C-453.62506583 277.06871745 -446.28295939 272.15836591 -438.90216064 267.2958374 C-437.60272079 266.43876177 -436.30464012 265.57962153 -435.00799561 264.71832275 C-433.16392856 263.4940772 -431.31505898 262.27742782 -429.46484375 261.0625 C-428.388396 260.35222656 -427.31194824 259.64195312 -426.20288086 258.91015625 C-421.06198599 255.84419379 -415.84349312 253.811276 -410.0625 252.3125 C-409.10472656 252.06113281 -408.14695312 251.80976563 -407.16015625 251.55078125 C-406.09087891 251.27814453 -406.09087891 251.27814453 -405 251 C-402.87086122 254.0804942 -400.74742247 257.16487535 -398.625 260.25 C-398.02171875 261.12269531 -397.4184375 261.99539063 -396.796875 262.89453125 C-396.21679688 263.73886719 -395.63671875 264.58320313 -395.0390625 265.453125 C-394.50490723 266.22817383 -393.97075195 267.00322266 -393.42041016 267.80175781 C-389.88012388 273.2807433 -389.88012388 273.2807433 -390.375 276.25 C-390.58125 276.8275 -390.7875 277.405 -391 278 C-390.55833496 277.63350342 -390.11666992 277.26700684 -389.66162109 276.8894043 C-381.5948595 270.20256584 -373.5066313 263.55680719 -365.24169922 257.1159668 C-360.78140337 253.63322653 -356.38376062 250.07846232 -352 246.5 C-345.91528582 241.53364867 -339.77348435 236.65064027 -333.57421875 231.828125 C-332.38254367 230.88575652 -331.19117175 229.94300462 -330 229 C-329.21343018 228.38914551 -328.42686035 227.77829102 -327.61645508 227.14892578 C-319.59051151 220.78112621 -312.47902127 213.67760074 -305.3125 206.375 C-290.96761168 191.80354085 -290.96761168 191.80354085 -284 186 C-282.8941993 185.06158894 -281.7887222 184.1227964 -280.68359375 183.18359375 C-280.15523926 182.73725586 -279.62688477 182.29091797 -279.08251953 181.83105469 C-267.76353519 172.24233954 -257.01338855 162.08693641 -246.5 151.625 C-245.53054443 150.66255371 -245.53054443 150.66255371 -244.54150391 149.68066406 C-241.35207217 146.4804935 -238.29652278 143.22373395 -235.35546875 139.79296875 C-232.7189962 136.74262702 -230.0113451 134.16226544 -226.8125 131.6875 C-221.66027163 127.58977991 -216.83279183 123.25683827 -212.01953125 118.7734375 C-209.84875665 116.75397695 -207.61979297 114.82133764 -205.36328125 112.8984375 C-200.29000668 108.48026325 -195.6443388 103.64440499 -190.93991089 98.84313965 C-182.09531029 89.83899507 -173.18284319 81.47899445 -163 74 C-160.52335238 72.04338696 -158.07603762 70.05104188 -155.625 68.0625 C-149.90780719 63.46183088 -144.08934051 59.01709293 -138.1940918 54.64746094 C-134.58937331 51.96840178 -131.02883483 49.24753123 -127.515625 46.44921875 C-118.38497476 39.181389 -109.27454971 32.55578736 -99 27 C-98.3797998 26.66307129 -97.75959961 26.32614258 -97.12060547 25.97900391 C-76.08018246 14.69598947 -53.0354046 6.24558007 -29.75 1.0625 C-28.33980591 0.74502808 -28.33980591 0.74502808 -26.90112305 0.42114258 C-17.70095747 -1.5120526 -9.29226156 -1.08636043 0 0 Z " fill="#000000" transform="translate(688,36)"/>
<path d="M0 0 C8.75482478 1.66201219 17.62747212 1.11989903 26.5 1 C26.5 10.9 26.5 20.8 26.5 31 C21.776875 31.020625 17.05375 31.04125 12.1875 31.0625 C10.70080811 31.071604 9.21411621 31.08070801 7.68237305 31.09008789 C6.51230713 31.09258545 5.34224121 31.09508301 4.13671875 31.09765625 C2.93748779 31.10289307 1.73825684 31.10812988 0.50268555 31.11352539 C-2.5 31 -2.5 31 -5.5 30 C-17.47646783 28.6674071 -28.75510375 31.23103543 -40.38232422 33.86547852 C-41.58775879 34.13674561 -42.79319336 34.4080127 -44.03515625 34.6875 C-45.111604 34.93886719 -46.18805176 35.19023437 -47.29711914 35.44921875 C-50.75324445 36.04354901 -53.99984436 36.09274129 -57.5 36 C-58.09505133 31.8892534 -58.68287681 27.77754618 -59.26391602 23.66479492 C-59.46275836 22.26476925 -59.66360082 20.86502617 -59.86645508 19.46557617 C-60.15707072 17.45826767 -60.43998652 15.4498491 -60.72265625 13.44140625 C-60.89547119 12.23170166 -61.06828613 11.02199707 -61.24633789 9.77563477 C-61.33004639 8.85967529 -61.41375488 7.94371582 -61.5 7 C-58.65931818 4.15931818 -51.8359622 4.1859214 -47.83911133 3.41601562 C-45.73298809 3.00879516 -43.62921178 2.5908027 -41.52539062 2.171875 C-27.97762178 -0.48186444 -13.6971643 -2.71250023 0 0 Z " fill="#000000" transform="translate(248.5,409)"/>
<path d="" fill="#000000" transform="translate(0,0)"/>
</svg>
